<?xml version="1.0" standalone="no"?>
<!DOCTYPE svg PUBLIC "-//W3C//DTD SVG 20010904//EN"
 "http://www.w3.org/TR/2001/REC-SVG-20010904/DTD/svg10.dtd">
<svg version="1.0" xmlns="http://www.w3.org/2000/svg"
 width="512.000000pt" height="512.000000pt" viewBox="0 0 512.000000 512.000000"
 preserveAspectRatio="xMidYMid meet">

<g transform="translate(0.000000,512.000000) scale(0.100000,-0.100000)"
fill="#000000" stroke="none">
<path d="M1288 4598 l-465 -523 486 -3 486 -2 73 -220 c41 -121 72 -230 70
-242 -2 -17 -23 -33 -88 -65 -64 -32 -91 -52 -110 -80 -14 -21 -63 -74 -109
-118 -47 -44 -118 -111 -158 -149 -40 -38 -75 -67 -77 -65 -5 5 -67 250 -92
363 l-17 80 -52 -235 c-29 -129 -94 -391 -144 -584 -50 -192 -91 -353 -91
-357 0 -5 74 -8 165 -8 l165 0 0 -30 c0 -82 40 -188 85 -225 29 -23 47 -105
38 -172 -3 -24 1 -61 10 -89 9 -27 17 -65 19 -84 l3 -35 -326 -3 -326 -2 -62
-233 c-34 -127 -67 -247 -72 -264 l-11 -33 -344 0 -344 0 0 -610 0 -610 335 0
335 0 0 78 0 78 48 37 c58 44 152 87 190 87 49 0 223 49 288 81 85 41 190 66
327 79 273 25 344 41 479 104 103 48 118 48 118 -5 0 -33 -9 -54 -44 -103 -24
-33 -53 -81 -65 -105 -22 -43 -121 -308 -121 -323 0 -4 19 -7 43 -7 23 1 34 3
24 6 -10 3 -17 8 -15 11 21 42 45 101 59 147 22 74 61 160 93 205 40 56 53 89
61 163 4 31 10 57 15 57 5 0 19 -12 33 -27 103 -114 155 -175 189 -218 21 -27
45 -57 53 -66 8 -9 15 -20 15 -25 0 -18 94 -100 148 -129 57 -31 112 -81 112
-102 0 -10 -53 -13 -247 -16 -173 -2 -125 -3 160 -5 237 -1 406 2 403 7 -3 5
4 16 17 24 12 8 48 40 80 70 31 30 72 68 90 83 18 16 65 68 103 116 108 135
107 135 101 116 -5 -15 -1 -16 23 -11 17 3 30 1 30 -3 0 -5 18 -20 40 -34 22
-14 40 -32 41 -40 0 -10 2 -11 6 -2 7 19 23 4 23 -24 0 -13 5 -24 10 -24 6 0
10 13 10 29 0 17 5 33 10 36 6 4 10 -11 10 -37 0 -50 36 -121 64 -126 10 -2
28 6 41 18 12 12 44 28 71 36 26 8 52 20 56 27 6 9 10 9 17 -2 5 -7 14 -10 20
-7 6 4 30 9 54 12 23 2 55 7 71 10 27 6 28 8 12 19 -16 12 -14 14 17 24 19 6
43 23 55 36 l22 25 52 -21 c29 -12 69 -26 88 -33 19 -7 34 -17 33 -23 -1 -6 9
-8 22 -5 15 2 25 0 25 -7 0 -6 11 -17 25 -23 14 -6 25 -18 25 -25 0 -10 6 -12
20 -8 14 5 20 2 20 -9 0 -12 -10 -16 -36 -16 -22 0 -33 -4 -29 -11 4 -5 21 -9
38 -7 l32 3 3 -97 3 -98 334 0 335 0 -1 1478 c0 1284 -2 1469 -14 1413 -51
-235 -175 -425 -358 -550 -176 -120 -430 -181 -753 -181 l-154 0 0 -470 0
-470 -184 0 c-102 0 -187 3 -190 8 -5 8 11 160 23 207 6 28 10 30 54 31 78 2
92 25 132 220 19 90 36 146 62 195 36 68 36 68 23 131 -6 34 -20 79 -31 100
-34 66 -21 124 47 224 31 45 35 58 36 120 1 38 -4 119 -12 179 -16 135 -20
286 -7 303 8 9 -1 25 -30 55 -30 32 -43 55 -52 99 -7 31 -18 59 -25 61 -8 3
-23 18 -34 34 -19 27 -20 32 -6 57 16 32 19 122 4 161 -5 14 -22 30 -37 35
-16 6 -36 15 -46 21 -31 17 -32 2 -3 -41 31 -47 33 -60 6 -60 -15 0 -20 7 -20
28 0 16 -9 37 -19 46 -11 10 -21 30 -23 44 -3 21 -12 28 -63 44 -32 11 -86 23
-119 26 -58 7 -61 8 -86 52 -18 30 -49 60 -98 93 l-72 49 0 160 0 159 608 -4
c659 -4 680 -5 866 -64 209 -66 367 -185 466 -351 43 -73 62 -121 90 -227 19
-70 19 -68 19 818 l1 887 -1684 0 -1684 0 -464 -522z m1902 -963 c0 -8 -4 -15
-8 -15 -13 0 -43 36 -36 43 10 10 44 -12 44 -28z m-950 -991 c0 -14 -66 -55
-74 -47 -11 11 -6 21 14 26 14 3 20 14 20 31 0 24 2 25 20 14 11 -7 20 -18 20
-24z m-64 -11 c-10 -10 -19 5 -10 18 6 11 8 11 12 0 2 -7 1 -15 -2 -18z m111
-30 c-4 -3 -2 -12 4 -20 17 -19 -4 -63 -44 -91 -29 -21 -29 -23 -7 -17 14 4
28 12 31 17 4 6 15 5 28 -3 17 -11 25 -11 41 -1 23 14 24 13 10 -24 -8 -21 -7
-31 6 -45 15 -17 15 -22 4 -47 -8 -15 -14 -34 -15 -42 0 -8 -9 -19 -21 -24
-12 -6 -26 -27 -33 -53 l-13 -43 -74 0 c-61 0 -81 4 -112 23 -44 28 -124 45
-117 24 4 -8 -17 -21 -57 -37 -39 -15 -83 -44 -118 -77 -53 -49 -61 -64 -86
-150 -2 -7 -9 -13 -15 -13 -8 0 -10 17 -5 61 7 62 30 99 62 99 14 0 14 1 0 16
-9 8 -16 21 -16 29 0 7 -3 21 -6 29 -5 12 -2 15 10 10 9 -3 16 -1 16 4 0 12
55 42 77 42 7 0 13 5 13 11 0 5 -8 9 -17 7 -10 -1 -20 2 -23 7 -3 6 19 12 50
15 45 4 54 8 52 22 -2 14 2 15 30 7 49 -14 54 -11 25 12 -21 16 -31 18 -46 10
-24 -13 -41 -14 -41 -2 0 14 81 23 96 10 8 -7 16 -10 17 -8 1 2 9 13 17 23 14
17 13 18 -8 12 -35 -11 -26 0 27 35 28 17 52 38 56 46 3 8 12 13 20 10 9 -4
12 -1 9 7 -3 8 7 18 25 26 17 7 29 16 26 20 -2 4 15 16 38 26 23 10 46 24 50
31 4 7 15 13 24 13 9 0 13 -3 10 -7z m133 -33 c-2 -14 -95 -79 -99 -68 -4 11
10 25 55 56 18 12 18 13 -4 8 -12 -2 -20 0 -17 5 6 8 65 8 65 -1z m60 -99 c0
-6 -4 -13 -10 -16 -5 -3 -10 1 -10 9 0 9 5 16 10 16 6 0 10 -4 10 -9z m25 -66
c9 0 11 -8 7 -35 -3 -14 -32 -13 -32 1 0 6 -7 9 -15 6 -8 -4 -17 -1 -21 5 -4
6 -3 8 4 4 6 -3 13 3 17 14 4 12 11 17 18 13 7 -4 17 -8 22 -8z m185 0 c14 -9
-1 -45 -19 -45 -9 0 -22 -5 -28 -11 -17 -17 -67 -7 -71 14 -7 34 5 43 58 45
28 1 55 0 60 -3z m-220 -135 c0 -5 -4 -10 -10 -10 -5 0 -10 5 -10 10 0 6 5 10
10 10 6 0 10 -4 10 -10z m60 -27 c0 -22 -2 -25 -10 -13 -13 20 -13 40 0 40 6
0 10 -12 10 -27z m-1116 -21 c5 -18 6 -35 3 -39 -13 -12 -37 20 -37 49 0 39
22 32 34 -10z m1121 -32 c3 -6 -4 -10 -17 -10 -18 0 -20 2 -8 10 19 12 18 12
25 0z m-1031 -155 c-6 -16 -24 -21 -24 -7 0 11 11 22 21 22 5 0 6 -7 3 -15z
m1124 -6 c-2 -6 -8 -10 -13 -10 -5 0 -11 4 -13 10 -2 6 4 11 13 11 9 0 15 -5
13 -11z m-130 -22 c-1 -2 3 -11 11 -20 12 -15 10 -17 -17 -17 -17 0 -34 -5
-38 -11 -4 -8 -9 -7 -15 2 -15 24 -10 35 24 45 31 9 42 10 35 1z m-961 -3 c-3
-3 -12 -4 -19 -1 -8 3 -5 6 6 6 11 1 17 -2 13 -5z m643 -30 c0 -8 -5 -12 -10
-9 -6 4 -8 11 -5 16 9 14 15 11 15 -7z m-455 -138 c21 -139 71 -233 146 -271
15 -8 37 -28 49 -45 19 -27 20 -33 9 -65 -11 -28 -11 -40 -1 -55 14 -23 16
-69 3 -89 -12 -18 7 -56 43 -90 14 -14 26 -29 26 -34 0 -5 8 -15 17 -22 15
-11 16 -16 4 -37 -10 -21 -10 -33 2 -74 14 -49 15 -49 53 -46 21 2 40 5 42 6
1 2 5 26 9 55 4 33 11 51 19 51 10 0 12 9 8 30 -5 21 -3 30 6 30 10 0 10 3 0
15 -10 13 -9 15 12 15 31 0 88 -19 88 -30 0 -4 17 -17 38 -27 51 -27 55 -57 9
-77 -19 -7 -38 -19 -41 -25 -4 -6 -19 -12 -34 -12 -16 -1 -20 -3 -10 -6 9 -2
15 -10 12 -17 -7 -18 31 -13 54 7 20 19 52 14 52 -8 0 -9 12 -11 44 -8 90 11
194 -33 211 -88 3 -9 -4 -39 -16 -66 -20 -48 -23 -50 -93 -72 -39 -13 -79 -27
-88 -32 -19 -9 -80 -1 -73 10 7 12 -49 40 -86 44 -19 2 -44 9 -56 15 -12 7
-35 12 -52 12 -24 0 -31 4 -31 19 0 11 -5 23 -11 27 -7 4 -10 1 -7 -7 6 -19
-17 -40 -37 -33 -13 6 -14 9 -3 16 9 7 5 8 -13 4 -20 -4 -36 4 -77 40 -29 25
-52 54 -52 63 0 10 -8 29 -19 42 -10 13 -26 38 -35 56 -11 22 -21 30 -32 26
-11 -4 -15 0 -13 13 3 22 -17 74 -28 74 -5 0 -16 15 -27 33 -25 43 -31 87 -68
498 -12 132 -6 218 14 230 7 5 14 7 15 5 2 -2 10 -47 18 -100z m-154 59 c13
-19 27 -35 32 -35 13 0 7 -61 -7 -66 -23 -9 -60 -123 -49 -150 3 -8 13 -14 22
-14 23 0 67 -68 54 -81 -15 -15 -54 12 -75 53 -34 65 -57 141 -49 157 5 9 11
39 15 66 16 119 20 124 57 70z m982 25 c8 0 8 -3 0 -11 -8 -8 -8 -20 -3 -34 5
-13 6 -26 3 -29 -4 -3 -1 -6 5 -6 17 0 15 -37 -3 -44 -11 -4 -14 -21 -14 -64
1 -67 6 -79 40 -96 36 -18 35 -43 -2 -65 -38 -23 -121 -37 -145 -23 -13 7 -30
4 -63 -10 -80 -34 -95 -2 -31 68 22 24 40 48 40 54 0 23 18 8 24 -20 3 -16 10
-30 16 -30 12 0 2 53 -12 58 -14 6 -9 62 6 62 16 0 26 21 26 53 0 18 2 19 10
7 9 -15 8 -17 25 36 3 9 1 22 -4 28 -5 6 -7 23 -4 38 5 26 31 40 61 32 8 -2
19 -4 25 -4z m-898 -447 c13 -86 14 -99 6 -112 -8 -12 -14 -12 -43 -1 -57 23
-61 29 -55 87 3 29 1 55 -4 58 -5 4 -9 12 -9 19 0 10 11 9 50 -3 44 -14 50
-20 55 -48z m731 -69 c52 -24 99 -44 105 -44 5 0 7 -4 4 -10 -3 -5 -27 -10
-52 -10 -34 0 -63 -9 -112 -36 -62 -34 -81 -38 -158 -32 -24 2 -29 6 -21 16 7
8 7 16 -1 26 -16 19 3 30 28 16 28 -15 33 -13 29 13 -2 17 1 21 17 19 19 -2
19 -2 2 12 -18 14 -18 15 2 28 12 7 21 20 21 28 0 27 39 20 136 -26z m90 -220
c-3 -9 -6 -20 -6 -25 0 -12 -37 -11 -45 1 -12 20 4 40 31 40 20 0 25 -4 20
-16z m-43 -451 c-7 -2 -19 -2 -25 0 -7 3 -2 5 12 5 14 0 19 -2 13 -5z"/>
<path d="M2050 2360 c-12 -8 -9 -10 13 -10 16 0 26 4 22 10 -8 12 -16 12 -35
0z"/>
<path d="M2103 2328 c1 -8 -6 -12 -18 -10 -38 5 -60 4 -95 -6 -23 -7 -28 -10
-14 -11 12 -1 27 -8 34 -17 7 -8 23 -14 34 -13 12 2 36 -5 54 -15 33 -17 33
-17 30 3 -2 11 6 26 17 35 11 8 17 18 13 22 -4 4 -14 1 -23 -6 -13 -10 -15 -9
-15 9 0 11 -4 21 -10 21 -5 0 -9 -6 -7 -12z"/>
<path d="M1701 2024 c0 -11 3 -14 6 -6 3 7 2 16 -1 19 -3 4 -6 -2 -5 -13z"/>
<path d="M1846 1361 c-3 -5 1 -11 9 -15 9 -3 15 0 15 9 0 16 -16 20 -24 6z"/>
<path d="M2380 1616 c0 -9 5 -16 10 -16 6 0 10 4 10 9 0 6 -4 13 -10 16 -5 3
-10 -1 -10 -9z"/>
<path d="M361 3554 l-361 -407 0 -716 1 -716 51 155 c152 460 676 2085 674
2088 -2 1 -166 -180 -365 -404z"/>
<path d="M3840 3116 l0 -326 83 0 c159 0 255 30 328 103 49 49 73 94 88 165
37 176 -25 316 -159 357 -35 10 -108 19 -197 22 l-143 6 0 -327z"/>
<path d="M1855 420 c-3 -5 -1 -10 4 -10 6 0 11 5 11 10 0 6 -2 10 -4 10 -3 0
-8 -4 -11 -10z"/>
<path d="M4180 320 c0 -5 7 -10 16 -10 8 0 12 5 9 10 -3 6 -10 10 -16 10 -5 0
-9 -4 -9 -10z"/>
<path d="M2303 233 c-7 -3 -13 -17 -13 -33 0 -21 7 -30 28 -38 23 -10 122 -14
122 -6 0 2 -11 15 -24 29 -15 16 -30 23 -40 19 -9 -3 -16 -2 -16 3 0 13 -42
31 -57 26z"/>
<path d="M4228 233 c7 -3 16 -2 19 1 4 3 -2 6 -13 5 -11 0 -14 -3 -6 -6z"/>
<path d="M4140 212 c-20 -4 -15 -7 30 -19 30 -8 69 -16 85 -19 27 -4 26 -2
-10 14 -53 25 -75 30 -105 24z"/>
<path d="M3861 194 c13 -16 29 -19 29 -5 0 5 -9 11 -21 14 -16 4 -18 3 -8 -9z"/>
<path d="M3966 193 c-11 -11 -6 -23 9 -23 8 0 15 4 15 9 0 13 -16 22 -24 14z"/>
<path d="M4042 180 c-15 -25 -15 -25 34 0 l39 19 -30 1 c-20 0 -35 -7 -43 -20z"/>
<path d="M3993 135 c-16 -11 -22 -12 -26 -2 -2 6 -8 9 -12 5 -4 -4 -1 -14 8
-22 13 -13 17 -12 37 10 27 27 24 31 -7 9z"/>
<path d="M3505 81 c-3 -11 -3 -31 1 -45 l6 -26 -228 -3 c-126 -1 -32 -3 209
-5 405 -2 462 1 427 23 -5 3 -10 1 -10 -4 0 -7 -61 -11 -184 -11 -182 0 -184
0 -190 23 -3 12 -6 32 -6 45 0 27 -16 29 -25 3z"/>
<path d="M1578 3 c7 -3 16 -2 19 1 4 3 -2 6 -13 5 -11 0 -14 -3 -6 -6z"/>
<path d="M2018 3 c6 -2 18 -2 25 0 6 3 1 5 -13 5 -14 0 -19 -2 -12 -5z"/>
<path d="M2123 3 c9 -2 23 -2 30 0 6 3 -1 5 -18 5 -16 0 -22 -2 -12 -5z"/>
</g>
</svg>
